<svg width="58" height="58" viewBox="0 0 58 58" fill="none" xmlns="http://www.w3.org/2000/svg">
<rect width="58" height="58" rx="12" fill="#1A2ABC"/>
<path d="M14 38.32C14 40.1504 14.78 41.7936 16 42.9376V46.64C16 47.784 16.9 48.72 18 48.72H20C21.1 48.72 22 47.784 22 46.64V44.56H38V46.64C38 47.784 38.9 48.72 40 48.72H42C43.1 48.72 44 47.784 44 46.64V42.9376C45.22 41.7936 46 40.1504 46 38.32V17.52C46 10.24 38.84 9.2 30 9.2C21.16 9.2 14 10.24 14 17.52V38.32ZM21 40.4C19.34 40.4 18 39.0064 18 37.28C18 35.5536 19.34 34.16 21 34.16C22.66 34.16 24 35.5536 24 37.28C24 39.0064 22.66 40.4 21 40.4ZM39 40.4C37.34 40.4 36 39.0064 36 37.28C36 35.5536 37.34 34.16 39 34.16C40.66 34.16 42 35.5536 42 37.28C42 39.0064 40.66 40.4 39 40.4ZM42 27.92H18V17.52H42V27.92Z" fill="#F7F7F7"/>
</svg>
